<svg id="Film-error" xmlns="http://www.w3.org/2000/svg" viewBox="0 0 64 64"><defs><style>.cls-1,.cls-5{fill:#606060;}.cls-1,.cls-8{stroke:#606060;}.cls-1,.cls-2,.cls-3,.cls-4{stroke-linecap:round;}.cls-1,.cls-4,.cls-8{stroke-linejoin:round;}.cls-1,.cls-2,.cls-3,.cls-4,.cls-6,.cls-8{stroke-width:2px;}.cls-2{fill:#6989ff;stroke:#6989ff;}.cls-2,.cls-6{stroke-miterlimit:10;}.cls-3{fill:#5b3b63;stroke:#5b3b63;stroke-linejoin:bevel;opacity:0.1;}.cls-4{fill:#cfd8dc;stroke:#cfd8dc;}.cls-6{fill:#006064;stroke:#006064;}.cls-7{fill:#fff800;}.cls-8{fill:none;stroke-linecap:square;}</style></defs><title>Film-error</title><path class="cls-1" d="M3,36H53a0,0,0,0,1,0,0V52.45A7.55,7.55,0,0,1,45.45,60H3.84A.84.84,0,0,1,3,59.16V36A0,0,0,0,1,3,36Z"/><rect class="cls-2" x="3" y="27" width="50" height="9"/><path class="cls-3" d="M49.58,27H22.42A20.94,20.94,0,0,0,15,43v4.17A4.83,4.83,0,0,0,19.83,52H25v5.77A2.23,2.23,0,0,0,27.23,60H44.77A2.23,2.23,0,0,0,47,57.77V52h5.17A4.83,4.83,0,0,0,57,47.17V43A20.94,20.94,0,0,0,49.58,27Z"/><path class="cls-4" d="M42,22h0A21,21,0,0,0,21,43v4.17A4.83,4.83,0,0,0,25.83,52H31v5.77A2.23,2.23,0,0,0,33.23,60H50.77A2.23,2.23,0,0,0,53,57.77V52h5.17A4.83,4.83,0,0,0,63,47.17V43A21,21,0,0,0,42,22Z"/><path class="cls-5" d="M58,43.43c0-3.29-4.36-7.65-7.65-7.65a6,6,0,0,0,0,11.9C53.64,47.68,58,46.72,58,43.43Z"/><path class="cls-5" d="M25.4,43.43c0-3.29,4.36-7.65,7.65-7.65a6,6,0,0,1,0,11.9C29.76,47.68,25.4,46.72,25.4,43.43Z"/><path class="cls-6" d="M3.44,12H48.56A2.44,2.44,0,0,1,51,14.44V22a0,0,0,0,1,0,0H1a0,0,0,0,1,0,0V14.44A2.44,2.44,0,0,1,3.44,12Z" transform="translate(-3.1 6.12) rotate(-12.67)"/><polygon class="cls-7" points="11.27 24.41 5.41 25.73 6.58 17.27 12.44 15.95 11.27 24.41"/><polygon class="cls-7" points="22.98 21.78 17.12 23.1 18.29 14.63 24.15 13.32 22.98 21.78"/><polygon class="cls-7" points="34.68 19.15 28.83 20.46 30 12 35.85 10.69 34.68 19.15"/><polygon class="cls-7" points="46.39 16.52 40.54 17.83 41.71 9.37 47.56 8.05 46.39 16.52"/><line class="cls-8" x1="36" y1="57" x2="36" y2="60"/><line class="cls-8" x1="40" y1="57" x2="40" y2="60"/><line class="cls-8" x1="44" y1="57" x2="44" y2="60"/><line class="cls-8" x1="48" y1="57" x2="48" y2="60"/><path class="cls-5" d="M41.48,46.78,38.65,51a.62.62,0,0,0,.52,1h5.67a.62.62,0,0,0,.52-1l-2.84-4.26A.62.62,0,0,0,41.48,46.78Z"/></svg>